/* XPM */
static char *a3f0e6f84b7e4acbfbbf65092665c8bcGzaq7qN557lKNpyC[] = {
/* columns rows colors chars-per-pixel */
"16 16 16 1 ",
"  c None",
". c gray5",
"X c #4B2629",
"o c #376D44",
"O c #AD5208",
"+ c #C87516",
"@ c #885B49",
"# c #F7D33E",
"$ c #DE8C7B",
"% c #8BC547",
"& c #DF8081",
"* c #FFC0AD",
"= c #C8D0D8",
"- c #FFE7CE",
"; c #F7F7DE",
": c white",
/* pixels */
"     .......    ",
"   ..#######.   ",
"  .#######:##.  ",
" .%#%%#%%:#:%%. ",
" .;;##;;#+:+#;. ",
" .##*+##+*+###. ",
" .#+..++-..+##. ",
" .#.=o---o=.#*-.",
" .+.:%---%:.O#. ",
" .#&---$$--&O#. ",
" .#+.o@**oo.++. ",
" .+O*o:::@%*O+. ",
".X.*@%%:%%@X*.  ",
".X=.%%%%%%XX.   ",
" .XX.*....*.    ",
"  .. ..  ..     "
};
