/* XPM */
static char *_863fbbd5ada470eaf8c5644bd152ab48u3uNQUOwkyQPXpt[] = {
/* columns rows colors chars-per-pixel */
"64 64 205 2 ",
"   c None",
".  c #020202",
"X  c #0B0B0B",
"o  c #141414",
"O  c #1C1C1C",
"+  c #1A0700",
"@  c #250A00",
"#  c #2B0C01",
"$  c #350F00",
"%  c #3A0F01",
"&  c #3C1101",
"*  c #371509",
"=  c #3D2217",
"-  c #232323",
";  c #2C2C2C",
":  c #343434",
">  c #3C3C3C",
",  c #421605",
"<  c #491806",
"1  c #551600",
"2  c #5B1A03",
"3  c #551800",
"4  c #651E00",
"5  c #5B220D",
"6  c #43281E",
"7  c #7E2A09",
"8  c #722E13",
"9  c #7D3315",
"0  c #543427",
"q  c #4E3F3C",
"w  c #50352B",
"e  c #71412F",
"r  c #65473C",
"t  c #444444",
"y  c #4B4B4B",
"u  c #524843",
"i  c #5C4E49",
"p  c #5F524D",
"a  c gray33",
"s  c #5C5C5C",
"d  c #5D5351",
"f  c #604D46",
"g  c #6D554C",
"h  c #745649",
"j  c #6A5A53",
"k  c #735C53",
"l  c #7F675C",
"z  c #646464",
"x  c #6B6B6B",
"c  c #727272",
"v  c gray50",
"b  c #796C67",
"n  c #8F2701",
"m  c #932800",
"M  c #9D2801",
"N  c #922700",
"B  c #90350F",
"V  c #833414",
"C  c #943A18",
"Z  c #A42C01",
"A  c #AB2E00",
"S  c #B42E00",
"D  c #A53003",
"F  c #AA3102",
"G  c #A7360D",
"H  c #B43200",
"J  c #BB3300",
"K  c #B83A09",
"L  c #A53710",
"P  c #C43600",
"I  c #CA3700",
"U  c #C43A02",
"Y  c #CC3B01",
"T  c #CD3F09",
"R  c #D33C01",
"E  c #D93E00",
"W  c #96401F",
"Q  c #BC481C",
"!  c #B34214",
"~  c #AC4217",
"^  c #804D37",
"/  c #97593E",
"(  c #BE512A",
")  c #A85C3E",
"_  c #B24F2B",
"`  c #C94106",
"'  c #CD430C",
"]  c #C3410A",
"[  c #D64306",
"{  c #DB4204",
"}  c #D4440B",
"|  c #DA460A",
" . c #D3490E",
".. c #DD4A0D",
"X. c #CF4813",
"o. c #C84714",
"O. c #D34B14",
"+. c #DB4C13",
"@. c #D04510",
"#. c #D3511C",
"$. c #DB531C",
"%. c #EA4502",
"&. c #E1460A",
"*. c #E54908",
"=. c #F34B03",
"-. c #F84D04",
";. c #F7540C",
":. c #E24D11",
">. c #E55315",
",. c #EB5212",
"<. c #E2551B",
"1. c #E55A1F",
"2. c #EE5B1C",
"3. c #F75A16",
"4. c #F8611E",
"5. c #CA5729",
"6. c #DD5B24",
"7. c #D35C2B",
"8. c #DB5D2B",
"9. c #D75723",
"0. c #E45C22",
"q. c #EA5D22",
"w. c #E25E2A",
"e. c #DF612D",
"r. c #CA6239",
"t. c #DC6433",
"y. c #DE6B3D",
"u. c #D76538",
"i. c #ED6124",
"p. c #E2612D",
"a. c #EA642B",
"s. c #EE682F",
"d. c #E66026",
"f. c #F46426",
"g. c #F6692B",
"h. c #E26532",
"j. c #E46A36",
"k. c #EC6B35",
"l. c #E46C3B",
"z. c #EA6D3A",
"x. c #E86631",
"c. c #F36C32",
"v. c #F76E34",
"b. c #EE713C",
"n. c #F3743C",
"m. c #FB743C",
"M. c #F67137",
"N. c #9A644D",
"B. c #B56747",
"V. c #AF7059",
"C. c #836E64",
"Z. c #C66D4A",
"A. c #D66E44",
"S. c #CB714E",
"D. c #D8754C",
"F. c #C97858",
"G. c #D77A54",
"H. c #E57344",
"J. c #EB7443",
"K. c #E7784A",
"L. c #EB7B4C",
"P. c #E67648",
"I. c #F17641",
"U. c #F57B45",
"Y. c #FB7A42",
"T. c #F27C4A",
"R. c #FA7E48",
"E. c #ED7C50",
"W. c #DC8259",
"Q. c #EE8255",
"!. c #EE865A",
"~. c #EB865B",
"^. c #F48353",
"/. c #FA8553",
"(. c #F4885B",
"). c #C0846D",
"_. c #D88260",
"`. c #DC906F",
"'. c #C18871",
"]. c #D6947B",
"[. c #EF8B61",
"{. c #E78C68",
"}. c #F18E64",
"|. c #F18F6A",
" X c #F3936A",
".X c #F59369",
"XX c #E59879",
"oX c #F29C76",
"OX c #F4A07D",
"+X c #8A8A8A",
"@X c #838383",
"#X c gray61",
"$X c #949494",
"%X c #A5A5A5",
"&X c #AFAFAF",
"*X c gray71",
"=X c gray",
"-X c #E39B81",
";X c #E0A28B",
":X c #E1A790",
">X c #E4AC97",
",X c #F3A482",
"<X c #C2C2C2",
"1X c #CBCBCB",
"2X c #D4D4D4",
/* pixels */
"                                                                                                                                ",
"                                                                                                                                ",
"                                                                                                                                ",
"                                                                                                                                ",
"                                                                                                                                ",
"                                                                                                                                ",
"                                                                                                                                ",
"                                                                                                                                ",
"                                                                                                                                ",
"                                                                                                                                ",
"                                                                                                                                ",
"                                                                            U U E { %.%.%.%.                                    ",
"                                                                    P ` | :.:.,.,.3.>.+.O.+.{ E Y                               ",
"                                                              P Y [ :.>.2.2.d.7.8.t.h.x.c.i.;.=.%.{ R                           ",
"                                                          P Y | >.0.a.i.w.7.t.j.b.n.Y.Y.m.v.3.;.-.=.E U                         ",
"                                                      P Y | :.1.i.k.c.7.u.H.b.m.Y.R././.^.T.n.f.3.=.%.[ Y                       ",
"                                                  I Y | +.<.0.q.1.9.7.e.Y./././.(.}..X.X}.(.T.n.f.2.,.:.[ U                     ",
"                                              P U } +.6.p.p.q.O.#.9.s.M.R.(..X.X XOXOX X}.}.^.I.M.s.q.>...E J                   ",
"                                            P J } $.e.h.a.<. . .2.v.m.Y./. XoXoXoX,XoX|.}.[.Q.I.M.k.s.0...{ R F                 ",
"                                          P P } $.6.p.q.#.' ..3.g.v.U.^._.).'.`.|.|. X}.[.!.E.J.j.t.t.5.X.[ { P                 ",
"                                        J R +.6.6.0.>.' [ *.3.4.v.U.^.W.C.b C.l V.~.!.[.!.Q.J.H.) ^ e 0 9 ` E R U               ",
"                                      J I | $.w.0.,.U I -.3.3.g.n.^.!.F.k j j d k G.!.!.!.L.J.A.h r w 6 8 ` E I I               ",
"                                    J P R U B o.| U E -.;.4.f.c.T.^.(.G.g u f g j F.Q.Q.L.H.H.K.B.q 6 = 7 Y E U P               ",
"                                  J P I J 2 * & n E =.-.3.f.M.n.T.^.^.L.) q u p g D.L.K.H.H.K.K.r.0 = * 2 P R J U               ",
"                                Z J U o.7 & # + 3 4 { =.2.c.n.n.I.T.T.b.j./ i p N.P.J.H.H.K.H.j.6.~ 5 < D Y Y J                 ",
"                                D K u.G.V % $ @ # $ J ,.a.z.b.k.n.I.J.z.j.H.S.Z.P.J.H.H.H.H.x.0.>.| H D U R P P                 ",
"                              Z ( S.XX-XV # @ # # & ] 1.x.j.j.k.b.J.b.j.l.H.J.J.l.z.l.l.j.w.<.:.&.E Y I I P H E                 ",
"                              M Q _.;XXXC * $ * , F +.6.h.h.x.x.z.l.l.j.h.l.l.l.j.p.p.p.0.<.:.&.{ R Y I U H J                   ",
"                            . . X - Z.V._ V.B.B.5.[ ..6.e.h.p.h.j.l.l.y.y.h.h.p.6.6.$.<.:.&.{ { R Y I I J H R                   ",
"                          . o - X O ; W _ :X-X{.D.O. .$.8.p.e.t.y.y.t.t.t.8.9.$.+.+.| | { { E R R Y Y I H U     > t s y         ",
"                          X : ; - O - : _ ].XX-XG.O.} +.$.6.8.t.y.u.8.7.9.#.O.O.} [ R R R R Y I I Y I P P   y : - X . o > :     ",
"                        X o y ; O O . ; : F.>X:XA.@.} +.+.9.8.8.8.9.#.Q ! K T R Y Y I Y I Y I U Y P J P o ; - .       . . .     ",
"                      ; . - y ; O O . o : t S.].r.T } } +.$.$.#.#.X.L 5 * , F I Y I P P I P U P P H J . X o .                   ",
"                    : o . ; a - ; o o X - > : Z.( U Y } O.O.O.X.@.K < , # @ 2 A P P P P P I P J J H .                           ",
"                  > ; . . t : - ; ; o X X ; > : D J I Y ' ' ' ' ' K & # @ @ # 1 H P J P P P J H S                               ",
"                > - .   . > : - > - . . . - a t G A J I Y Y Y Y U J < @ @ # 1 N J J J P P H A                                   ",
"          y > : ; X     X t t > - . . . . X t x t L S P P P P I P P N @ # # m J P J J J H H                                     ",
"      o O o X . .       X : : - . . . o X . - z c C M J J J P P P P J m N M J J J S H A F                                       ",
"        .               X O O X . . O ; O . X t x :   A S J J J J J J J J J J J A Z Z                                           ",
"                        X O X . X t +X+Xs X . - :       A S J J H H H H J H J A Z                                               ",
"                      . . O X X s #X<X=X$X: . . O o       M A A H J H H A Z A                                                   ",
"                    o y X . X X z *X1X<X%Xc O . . - ;         A A H A A S . .                                                   ",
"                    a $XO . . . > #X2X1X%X+Xt X   . t >                   . . X ; :                                             ",
"                    v #X- . . . o x 2X2X&Xa X     . O t :                     . . o t >                                         ",
"                  X s a - s ; . . t <X2X@Xo         X O ; ;                       . X . .                                       ",
"                . . X o x *Xx X . o @X#X;             . . X X                       ; .                                         ",
"              . .   . o c *Xt . .                         O .                     s -                                           ",
"              .       X t > X .                         y O .                     s .                                           ",
"                        X . .                           s .                     a o                                             ",
"                          . .                         z : .                     ; .                                             ",
"                          . .                         s .                     . . .                                             ",
"                      . . .                           a .                         .                                             ",
"                                                    t ;                                                                         ",
"                                                    O .                                                                         ",
"                                                  . . .                                                                         ",
"                                                      .                                                                         ",
"                                                                                                                                ",
"                                                                                                                                ",
"                                                                                                                                ",
"                                                                                                                                ",
"                                                                                                                                ",
"                                                                                                                                ",
"                                                                                                                                ",
"                                                                                                                                "
};
