/* XPM */
static char *_02891faaa6e47c4aaaa5e84be5f84b34GxIsLalbsVdOOUM[] = {
/* columns rows colors chars-per-pixel */
"64 64 9 1 ",
"  c None",
". c black",
"X c #482D1E",
"o c #5F3A27",
"O c #744730",
"+ c #5F5F5F",
"@ c #727272",
"# c gray50",
"$ c #865337",
/* pixels */
"                                                                ",
"                                                                ",
"                                                                ",
"                                                                ",
"                                                                ",
"                                                                ",
"                             +++++++                            ",
"                             +++++++                            ",
"                        +++++#######++++                        ",
"                        +++++#######++++                        ",
"                    ++++################++++                    ",
"                    ++++################++++                    ",
"                   +@@@#####################+                   ",
"                   +@@@########.....#########+                  ",
"                  +@#######.....X.....########+++               ",
"                  +@#######.....X.....########+                 ",
"                  +@#######.....X.....########+                 ",
"                  +@######.XXXXX$$$$oO..######+                 ",
"              ++++@#####..XXXXX$$$$$oOOO..#####+++              ",
"             +@@@#######..XOOXX$$$$$oOOO..########+             ",
"             +@@@######.XXXOOXX$$$$$oOOOOO..######+             ",
"             +@@@######.XXXOOXX$$$$$oOOOOO..######+             ",
"             +@@@######.XXXOOXX$$$$$oOOOOOOO.######+            ",
"            +@@@@###...XXXOOOXX$$$$$oOOOOOOO.######+            ",
"            +@######...XOOOOOXX$$$$$oOOOOOOO.######+            ",
"            +@######...XOOOOOXX$$$$$oOOOOOOO.######+            ",
"            +@#####.XXXXOOOOOXX$$$$$oOooOOOOo.#####+            ",
"            +@#####.XXXoOOOOOXX$$$$$oOoooOOOo.#####+            ",
"            +@#####.XXXoOOOOOXX$$$$ooOOOOOOOo.#####+            ",
"            +@#####.XXXoOOOOOXX$$$$ooOOOOOOOo.#####+            ",
"            +@#####.XXXoOOOOOXX$$$$ooOOOOOOOo.#####+            ",
"            +@#####.XXXoOOOOOXX$$$$ooOOOOOOOo.#####+            ",
"          ++@@#####.XXXoOOOOOXX$o$$ooOOOOOOOo.######++          ",
"          ++@@#####.XXXoOOOOOXX$o$$ooOOOOOOOo.######++          ",
"          ++@@#####.XXXoOOOOOXX$o$$ooOOOOOOOo.######++          ",
"          ++@@#####.XXXoOOOOXXX$$$$ooOOOOOOOo$.#####++          ",
"          ++@@####.XXXXoOOOOXXX$$$$ooOOOOOOOo$.#####++          ",
"          ++@@####.XOOOoOOOOXXX$$$$ooOOOOOOOo$.#####++          ",
"          ++@@####.XOOOoOOOOXXX$$$$ooOOOOOOOo$.#####++          ",
"          ++@@####.XOOOoOOOOXXX$$$$ooOOOOOOOo$.#####++          ",
"          ++@@####.XOOOoOOOOXXX$$$$ooOOOOOOOo$.#####++          ",
"          ++@@####.XOOooOOOOXXX$$$$ooOOOO...o$.#####++          ",
"          ++@@####.XOOooOOOOXXX$$$$ooOOOO...o$.#####++          ",
"          ++@@####.XOOooOOOOXXX$$$$ooOOOO...o$.#####++          ",
"        ++++@#####.XOOooOOOOXXX$$$$ooOOO.....$.#####++++        ",
"        ++@@@#####.XOOooOOOOXXX$$$$ooO......o$.#######++        ",
"        ++@@@####..XOOooOOOOXXX$$$$ooOOOOoooo$....####++        ",
"        ++@@@##...XXOOooOOOOXXX$$$$ooOOOOoooo$$...####++        ",
"        ++@@@##...XXOOooOOOOXXX$$$$ooOOOOoooo$$...####++        ",
"        ++@@@##...XXOOooOOOOXXX$$$$ooOOOOoooo$$...####++        ",
"        ++@@@##...XOOOooOOOOXXX$$$$ooOOOOOOOo$$...####++        ",
"        ++@@###...XOOOooOOOOXXX$$$$ooOOOOOOOo$$...####++        ",
"        ++@@###...XOOOooOOOOXXX$$$$ooOOOOOOOo$$...####++        ",
"        ++@@###...XOOOooOOOOXXX$$$$ooOOOOOOOo$$...####++        ",
"        +@@@###...XOOOooooOOXXX$$$$ooOOOOOOOo$$...####++        ",
"        +@@@###...XOOOooooOOXXX$$$$ooOOOOOOOo$$...####++        ",
"        +@@@###...XOOOooooOOXXX$$ooooOOOOOOOo$$...####++        ",
"        +@@@###...XOOOooooOOXXX$$ooooOOOOOOOo$$...####++        ",
"                                                                ",
"                                                                ",
"                                                                ",
"                                                                ",
"                                                                ",
"                                                                "
};
