/* XPM */
static char *ab1a507aacbd460dae7fd218dd999181YywMimc2dJrE0AW7[] = {
/* columns rows colors chars-per-pixel */
"64 64 129 2 ",
"   c None",
".  c #000000",
"X  c #0F0F0F",
"o  c gray7",
"O  c #1D1D1D",
"+  c #242424",
"@  c #2C2C2C",
"#  c #343434",
"$  c #3C3C3C",
"%  c #4F0000",
"&  c #540000",
"*  c #5D0000",
"=  c #630000",
"-  c #6B0000",
";  c #730000",
":  c #7D0000",
">  c #434343",
",  c #4C4C4C",
"<  c #545454",
"1  c #5C5C5C",
"2  c #636363",
"3  c #6B6B6B",
"4  c #737373",
"5  c #7B7B7B",
"6  c #830000",
"7  c #8A0000",
"8  c #940000",
"9  c #9B0000",
"0  c #A50000",
"q  c #AC0000",
"w  c #B10000",
"e  c #BC0000",
"r  c #C50000",
"t  c #C90000",
"y  c #D30000",
"u  c #848484",
"i  c #8E8E8E",
"p  c #898989",
"a  c #909090",
"s  c gray57",
"d  c #929292",
"f  c #939393",
"g  c gray58",
"h  c #959595",
"j  c gray59",
"k  c #979797",
"l  c #949494",
"z  c #989898",
"x  c gray60",
"c  c #9B9B9B",
"v  c gray61",
"b  c #9D9D9D",
"n  c gray62",
"m  c #9F9F9F",
"M  c #9D9D9D",
"N  c #A0A0A0",
"B  c gray63",
"V  c #A2A2A2",
"C  c gray64",
"Z  c #A5A5A5",
"A  c gray65",
"S  c #A7A7A7",
"D  c #A3A3A3",
"F  c gray66",
"G  c #A9A9A9",
"H  c #AAAAAA",
"J  c gray67",
"K  c gray68",
"L  c #AEAEAE",
"P  c #ABABAB",
"I  c gray69",
"U  c #B1B1B1",
"Y  c #B2B2B2",
"T  c gray70",
"R  c #B4B4B4",
"E  c gray71",
"W  c #B6B6B6",
"Q  c #B7B7B7",
"!  c #B3B3B3",
"~  c gray72",
"^  c #B9B9B9",
"/  c gray73",
"(  c #BBBBBB",
")  c #BCBCBC",
"_  c gray74",
"`  c gray",
"'  c gray75",
"]  c #BDBDBD",
"[  c #EEE3B1",
"{  c #EDE2B2",
"}  c #EFE4B0",
"|  c #EDE3B4",
" . c #C0C0C0",
".. c gray76",
"X. c #C3C3C3",
"o. c gray77",
"O. c #C5C5C5",
"+. c #C6C6C6",
"@. c gray78",
"#. c #C3C3C3",
"$. c #C8C8C8",
"%. c gray79",
"&. c #CACACA",
"*. c #CBCBCB",
"=. c #CDCDCD",
"-. c #CECECE",
";. c gray81",
":. c #CDCDCD",
">. c #D0D0D0",
",. c gray82",
"<. c #D2D2D2",
"1. c LightGray",
"2. c gray83",
"3. c #D5D5D5",
"4. c gray84",
"5. c #D7D7D7",
"6. c #D4D4D4",
"7. c #D8D8D8",
"8. c gray85",
"9. c #DADADA",
"0. c gray86",
"q. c gainsboro",
"w. c #DDDDDD",
"e. c gray87",
"r. c #DFDFDF",
"t. c #DFDFDF",
"y. c gray88",
"u. c gray90",
"i. c #E4E4E4",
/* pixels */
"                                                                                                                                ",
"                                                                                                                                ",
"                                                                                                                                ",
"                              , < V 5 2 Q 5 a 5 $                                                                               ",
"                          < Q 2 2 m ( 3 3 j 1 V 1 2 3                                                                           ",
"                        1 3 3 p ) p c 2 a L p 1 1 5 U 3                                                                         ",
"                      1 V ( 4 2 5 $ 3 1 3 2 4 u , < u 2 ,                                                                       ",
"                    < u 5 2 a < 5 1 4 j 5 , 2 2 i j 3 < 3 u                                                                     ",
"                    p U 3 > V U -.@.>.5.@.@.Q < j U p < 2 V 2                                                                   ",
"                    2 < 1 ) 5.5.>.5.c 3 5.5.>.-.3 u 2 j m 1 2 >                                                                 ",
"                      c @.$.7.7.e.3 [ [ u e.e.5.>.2 < S a 4 5 2                                                                 ",
"                      Q -.5.e.e.3 } . . } 4 e.5.5.7.p 3 4 2 5 i <                                                               ",
"                    . . e.e.e.e., } . . } , e.e.7.5.a 3 , 1 p j 2                                                               ",
"                  a . . e.5.>.7.5 | } } } 3 7.7.-.( 3 4 4 p j j 2                                                               ",
"                # 7.y.5.7.5.>.>.e.) 2 1 i 7.5.>.( 2 p p > < 1 u 1                                                               ",
"              + # $ u.7.# $.@.-.>.5.5.5.-.$...U 2 2 4 < @ 3 5 , ,                                                               ",
"              + $ > 1 4 $ # @...@.$.-.@.@...) 1 a c Q 1 4 1 < > 2 3                                                             ",
"            O # > $ $ a # # $.$.....L H 3 4 1 3 3 2 3 2 V a 5 i p <                                                             ",
"            + $ $ $ $ 3 $ @ o ) 3 4 p 1 3 3 5 2 2 2 V L Q 5 5 3 2 ,                                                             ",
"            + $ $ $ > @ + . + @ 2 5 c 4 2 1 m H 2 < 1 3 1 , < 2 3 , ,                                                           ",
"            + # $ > > + . . # @ + p V p , < 5 2 2 1 4 1 > 4 5 p < 1 1                                                           ",
"            + $ > $ + . . $ # # + @ i 3 1 5 , , $ p a i 5 U c 1 3 3 , ,                                                         ",
"              + # + O . . # # # + + 1 < c 4 < < 3 j 5 2 a i 3 2 3 , 1 2                                                         ",
"              + @ + . . + @ + O + 5 u j c , 3 3 V u , 1 p 5 2 1 1 1 < $                                                         ",
"              + + +     O O , , > , < $ # $ a j i 3 2 < , 3 < < > > # 1 <                                                       ",
"                O +           < > u p < > p 4 < u p 3 2 3 2 2 3 2 < , 4 < #                                                     ",
"                  +           2 4 4 < 2 j 3 , 2 1 1 u 2 , 2 3 2 5 5 3 1 3 1 > $                                                 ",
"                              > > > 4 u 2 > 4 2 , $ < 3 3 2 3 4 5 5 2 2 5 3 2 > #                                               ",
"                              $ $ , 3 1 1 4 1 $ < 1 5 4 3 2 4 3 3 < < 4 4 5 3 < , > $                                           ",
"                              3 2 5 1 3 3 3 $ > 1 2 5 < 1 4 1 4 3 , > , < 3 2 2 1 1 1 ,                                         ",
"                              4 S i > 1 2 $ $ > , 2 5 , < 3 2 < 3 2 , $ $ , 2 3 2 , < 1 , <                                     ",
"                              # $ , < 2 3 > , , < 2 1 , , 3 < < < 3 4 > # $ , 1 < , , 3 2 1 , ,                                 ",
"                              + $ 4 2 4 1 $ , < < < , , < 3 3 < , < 2 3 , # , > 2 > , < < 2 2 1 ,                               ",
"                              1 p j c V 1 # $ < 1 < , < 1 < 3 2 > > 2 2 1 1 < $ , 3 2 , < 1 , 3 1 ,                             ",
"                                H Q p , < # # < 2 < > $ 1 , 3 3 < $ , 3 1 1 2 1 < 4 4 2 , < < 1 < 2 <                           ",
"                                < > 3 p m j + , 1 < $ $ 1 , < 3 3 1 > > > 2 4 4 2 4 3 4 4 3 , , < 1 , <                         ",
"                                @ $ , V 5 p $ $ > < , $ , 1 > 1 2 4 3 > > , 3 5 3 2 4 5 4 3 1 1 > > , $ ,                       ",
"                                  $ 2 i 4 1 2 @ # , < < > 1 1 $ 1 3 4 < > > > 3 2 2 , < 4 4 1 < 1 3 , $ #                       ",
"                                  1 j 5 4 4 u 2 @ $ > 1 > < 1 < $ > 4 5 2 $ > 1 4 , $ > > , < 1 2 2 3 2 , #                     ",
"                                  , 3 p 5 u m 3 # 1 + > , $ , , , # < < 2 > > 1 5 3 < > > , , , > > $ $ > # # #                 ",
"                                    1 4 p i p c p < @ @ $ $ , , , $ # > > > , > 3 5 5 4 4 4 < < , > $ # > > $ $ # +             ",
"                                    1 3 j m H S S c $ + + + # > > > > > , < , > $ 1 < < 1 5 5 5 4 2 < $ # # # > < , > $ $       ",
"                                      > u p 5 5 m 1 3 > # O O + # $ $ # $ , < 1 < , > > , < < < , > # # $ $ # @ $ > , < # #     ",
"                                      2 5 p u 2 V 3 3 j 4 $ 2 1 + + + @ # # > , < 1 < , > $ # > > < > > $ > > $ $ @ # # #       ",
"                                        1 2 u u 5 1 5 j 5 j c i > # # + O + + + + @ + + + + @ # + + + @ # $ > > > $             ",
"                                          , 1 1 2 m 2 5 p 5 i 3 3 < > > > + + > $ - * + - = ; 6           + # # @               ",
"                                            2 4 H ( , 4 a 4 5 i p 3 5 4 3 4 p < > 8 6 6 6 7 e t 0 6                             ",
"                                              V -.( $ 1 p a 4 2 1 2 4 U p p 2 i 4 0 9 8 ; - : w y y e 0 7                       ",
"                                              U $.< @ 3 5 3 p 2 ( a > 3 2 > # > 8 e e q 9 6 ; * 7 0 e t r e                     ",
"                                              >.m ,     > < 4 H -.S < < $     & & = 7 0 e 0 8 6 7 - - ; 8                       ",
"                                            @.p 5             @.-.( 2               % % 6 9 0 9 q w 0                           ",
"                                          U ) ..                e.p 4                     : * = 9 0 t y                         ",
"                                  H -.) ..u @.j H ) >           e.-.a                             ; 8                           ",
"                            ( $.5 V L H e.-.m ( j . . .         m ..) H -.5.U                                                   ",
"                        1 2 H i p V U 5.L j L 1 ..            u.-.@.-.H 3 . . O                                                 ",
"                      + + . .   4 >.U u     . . X 5.y.>...L a $.5 Q S ..5.5.                                                    ",
"                              p < + u           5 + p < 4 a c U j c 3 4 H O $                                                   ",
"                              X . .             X .   1 < O 1 1         . . . #                                                 ",
"                                                    . X . .                                                                     ",
"                                                                                                                                ",
"                                                                                                                                ",
"                                                                                                                                ",
"                                                                                                                                ",
"                                                                                                                                "
};
