/* XPM */
static char *cdd73bd20bde44b8d5156109354d7f8dlM0fTNiHzzqHXTxK[] = {
/* columns rows colors chars-per-pixel */
"64 64 206 2 ",
"   c None",
".  c #000E07",
"X  c #00120C",
"o  c #0D120D",
"O  c #12130C",
"+  c #021413",
"@  c #031E15",
"#  c #0A1E15",
"$  c #041D19",
"%  c #091E1B",
"&  c #0A1616",
"*  c #141613",
"=  c #141A15",
"-  c #1A1B15",
";  c #131E1A",
":  c #181C18",
">  c #181713",
",  c #02250E",
"<  c #002D0E",
"1  c #01340D",
"2  c #003C0C",
"3  c #083809",
"4  c #032315",
"5  c #0A2215",
"6  c #022A13",
"7  c #0B2914",
"8  c #04231A",
"9  c #09231A",
"0  c #022B1A",
"q  c #092918",
"w  c #1B2219",
"e  c #172218",
"r  c #013314",
"t  c #003B14",
"y  c #013419",
"u  c #09321C",
"i  c #003C1C",
"p  c #103E17",
"a  c #2B2C0E",
"s  c #2C2A16",
"d  c #23241C",
"f  c #2B2618",
"g  c #2B291B",
"h  c #262411",
"j  c #3B2C19",
"k  c #382C1B",
"l  c #363217",
"z  c #3E3115",
"x  c #3E321C",
"c  c #373D1A",
"v  c #062322",
"b  c #022820",
"n  c #063724",
"m  c #1E3C32",
"M  c #2B3E3E",
"N  c #273C3D",
"B  c #4E350C",
"V  c #563A0E",
"C  c #402F19",
"Z  c #443516",
"A  c #4C3615",
"S  c #4A3A15",
"D  c #43341A",
"F  c #4B371B",
"G  c #463B1B",
"H  c #4C3B19",
"J  c #423816",
"K  c #523C15",
"L  c #543A1D",
"P  c #603F1C",
"I  c #413825",
"U  c #004204",
"Y  c #004C05",
"T  c #00430D",
"R  c #004C0D",
"E  c #005504",
"W  c #005C05",
"Q  c #00540C",
"!  c #005C0C",
"~  c #004413",
"^  c #004C13",
"/  c #024319",
"(  c #004C1B",
")  c #005413",
"_  c #005C13",
"`  c #00531C",
"'  c #005C1A",
"]  c #006304",
"[  c #006C06",
"{  c #00640B",
"}  c #006B0C",
"|  c #007404",
" . c #007C04",
".. c #00740C",
"X. c #007B0C",
"o. c #006413",
"O. c #006A13",
"+. c #00621C",
"@. c #006E1A",
"#. c #0C6615",
"$. c #007313",
"%. c #007B13",
"&. c #007E18",
"*. c #004B20",
"=. c #005327",
"-. c #1E443A",
";. c #006724",
":. c #48400C",
">. c #4C4011",
",. c #56441B",
"<. c #5A411B",
"1. c #554615",
"2. c #674B0F",
"3. c #6A510D",
"4. c #7C570F",
"5. c #614214",
"6. c #644C15",
"7. c #674A19",
"8. c #764D16",
"9. c #6B541C",
"0. c #63511C",
"q. c #7C5618",
"w. c #5C4B23",
"e. c #685725",
"r. c #7C5728",
"t. c #2B4244",
"y. c #2E474B",
"u. c #845D13",
"i. c #8A6A13",
"p. c #956E15",
"a. c #9B6C1D",
"s. c #906A1D",
"d. c #9E7518",
"f. c #A46E0E",
"g. c #A46B14",
"h. c #A76C15",
"j. c #A67115",
"k. c #AA7617",
"l. c #AC7A16",
"z. c #A57118",
"x. c #AC711A",
"c. c #A77915",
"v. c #B27D15",
"b. c #B97C1B",
"n. c #825920",
"m. c #8E6A27",
"M. c #946920",
"N. c #997427",
"B. c #A67127",
"V. c #008404",
"C. c #008B03",
"Z. c #00840B",
"A. c #008B0B",
"S. c #009303",
"D. c #009C03",
"F. c #00940B",
"G. c #009B0B",
"H. c #008312",
"J. c #008B12",
"K. c #00871D",
"L. c #008C18",
"P. c #009412",
"I. c #009A11",
"U. c #00A402",
"Y. c #00AB03",
"T. c #00A20B",
"R. c #00AE08",
"E. c #00AB0B",
"W. c #00B404",
"Q. c #00BB02",
"!. c #00B50A",
"~. c #00BB0A",
"^. c #00A710",
"/. c #00AA17",
"(. c #00B414",
"). c #00BB14",
"_. c #00C203",
"`. c #00CC04",
"'. c #00C30A",
"]. c #00CB0A",
"[. c #00D303",
"{. c #00DA00",
"}. c #00DC03",
"|. c #00D30A",
" X c #00DB0C",
".X c #00C312",
"XX c #00CD14",
"oX c #00C41A",
"OX c #00D513",
"+X c #00DD11",
"@X c #00DD1D",
"#X c #00E304",
"$X c #00E40B",
"%X c #00EB0C",
"&X c #00F60C",
"*X c #00E212",
"=X c #00EC11",
"-X c #00E61D",
";X c #00C826",
":X c #AC821D",
">X c #AA8217",
",X c #B88517",
"<X c #C3921B",
"1X c #C99A1E",
"2X c #CC9522",
"3X c #C79723",
/* pixels */
"                                                                                                                                ",
"                                                  4 6         , | J.6         6 <                                               ",
"                                                / { A.! 0   # ..!.~.K.4     5 E.F.<                                             ",
"                                  8 4 7 q -.    ( Y. XV.%.4 o.V.W.=XR.O.4 r A.'.OX..4   0 y / 6                                 ",
"                                  _ U.W.E.( @ ~  .OXS.G.Z.5 _ V.| R.).O.@ ..C.S. X .$ 6 ' F.F...4                               ",
"                                  ) ). X].I.T ~ Z.V.D.H.9 ) o.4 ! T.@.% # 6 | G.D...% O.G.{.{...4                               ",
"                                  / T.%XG.E.A.) 4 } } < | D...@ 4 ! $.X.[ .., W Z.9 } J.Z.G.}.O.$                               ",
"                      M 9 9 9     t | F. .[ H.Q 9 6 ^ 4 } ~...@ 9 6 4 Z.H.%.4 4 4 9 } o.Z.A.D.o.$ q y 9 8                       ",
"                      t._ Y.D.Y 9 8 2 R 4 1 E ^ 6 V.G.@.5 L.q 9 ....4 0 Z.4 ) A.Z.9 ) 4 } r [ 6 ' V.V.U.4                       ",
"                      y.! *X`.`.C.U q O.Q @ < ) r [.|.R.o.4 ~ V.W.Y.V.r 4 Z.C.W.].| 8 4 4 { 4 8 H.[.W.].4                       ",
"                        !  XQ.Y.S.H.G.V.[ [ $.{ 1 D.=X].} 4 Q C.#X#XU.r 4 ..Y.`.[.[ 4 } 0 X.F.O.H.F.`.D.8                       ",
"                      t.R ~.U.D.| } ;XY.F.V.%.) < S.Y.S.{ 4 ~ C.F.}.D.) 9 } C.Z.R.8 4 ..C.Y.W.%.` F.`...8                       ",
"                      M t } G.C.2 Q XX_.~.XX..o.4 2 { 2 ..X.t ^ Z.V.y ` Z.[ 4 [ 8 9 $ ..`.Q.$X$.' S.Z.4 4                       ",
"                      N 8 O.! X.U 2 S.~.Q.E.Q } _ 9 $ < | F.F.O.4 4 ~ F.X...4 4 6 { 9 ..U.$XR.` +.C.X.4 4 4                     ",
"                  4 6 9 r r ) $.U 4 Y S.D.] Q o.r R ` 4 4 A...6 8 { 6 } ..8 8 ! r 4 8 } } G.A.9 _ V.r 4 8 _ 6                   ",
"                + *.G.G.C.U 4 4 4 8 4 1 U # # 5 r } ..&.# 5 { 9 ..O.5 ! 4 9 X.X.} 8 $ % 9 } 8 % ~ 4 4 ! X.I.A.4                 ",
"                + ` XX+XU.S.W o.1 { | H.4 T ] { t W.D.G.X.# | H.G.T.G.! 9 | A.Q.Q.} $ O...u A.{ $ ..8 } Q.~.'.4                 ",
"                $ ~ G.~.D.F...O.T J._.D. .| | 4 o.*X.X+XG.4 1 F.+XE.OXo.% | F.#X}.X.% O.A.J.P.F.$ X.X.F.X.].Y.4                 ",
"                  n A.F...K.^. .R I._.].C.| A.4 T V.|..X^ { 5  .H.+XZ.5 { 4 V.E.S.8 $ ..$.~.}.D.$ F.D.T.8 G.r                   ",
"                    @ } ] H.Y.T.Y P.Y.[.F.W.| ..4 2 D.} ~ } { , } H.u Z.} 9 t | 4 4 } O.Y.F.`.G.% A.].T.9 } 0                   ",
"                  X 9 5 6 ] E.C.T { E } | C...V.` 9 4 6 / ..X._ @ 4 o.X.} $ 4 # 4 4 O.U.A.F.V.' 9 Z.A.%.v 9 8                   ",
"                + =.$.{ +.4 Y G.V.1 4 4 4 2 [ Z.6 T _ t [ r A.4 9 Q # | y 9 ..[ 4 $ } ..^ 9 9 % $.Z.+.9 ^ Z.} 4                 ",
"                + %.(.S.X.U 6 %.} < t G.| o.@ r { T.F.Z.O.5 Q ; ..} # @ 8 V.X.Y...) 9 8 8 ..V.9 } } 9 ) Z.Z.Y.6                 ",
"              + 0 A.-X`.U.Z.| _ @ } T.W.W.E._ 4 Z.'._.Y.XX_ 4 $.F.G.D.4 ] R.`.R.]._ 8 ..R.Y.Y.S.8 ~ ..G.A._.}.r 6               ",
"              + n  .R.Y.T.T.W.o.4 ..XX}.]./.} 4 T D.%X'.X.4 4 $.[.R.[.4 { | R.#X!.0 9 } G.#X#XG.9 X.X.T.%.Y.} y 4               ",
"                8 r A.Y ! (.`.Z.Q Q G.}.F.R $.@ 6 ! F.o.4 ! 7 { A.$XS.@ 4 6 V.A.} 8 8 [ ) E.|.} 9 A.F.[.( r 4 4                 ",
"                    @ t Y /.`.E.D.] E  .A.) | ..@ 4 0 @ 4 ! } 5 ! R.} 4 @ @ 4 4 @ 4 ..[ ' X.X.8 A.S.G.|.*.4                     ",
"                  + 8 4 4 E F.W.D.E # 4 T } G.X.$ r ~ ) 9 ! A.9 9 | 4 L @ 4 ! { 8 8 { G.$.9 4 @ | V.~.;.9 ) ,                   ",
"                X y H.Z.o.4 ! [ 1 r X.Z.' # r 4 t | D.o.( 6 o.Z.% 7 8 F 8 8 ....Z.9 $ 4 4 ....4 $ { Q 9 ' $.$.6                 ",
"                . @.oXS.| U 1 1 2 | G.E.A.C.t 6 } Q.Y.~.C.# { } 9 ..{ @ 4 V.U.D.R.C.$ o.C.Z.Z.$.$ { 9 Z.Z.Q.}.6 4               ",
"                X O.@X|.U.E 6 2 < X.!.|.'.F.@ 0 ..$XW.%XC.@ 4 { 9 X.{ ^ 4 ..#X!.}.D.$ { F.E.}.Z.$ { 9 A._._.[.0 4               ",
"                X 6 %. .S.W _ Q 4 2 J.=X[ r @ 4 ] S.%XC.C.@ 5 { ; { 4 ) @ 4 F. X|.o.$ 4 Q E.].X.% } 8 ..F.F.0 6 4               ",
"                    9 t Y ..U.C.C.+., V.Y < ) 9 6 W Z.6 o.4 ~ C.} R # 4 ! 4 ) } Z.8 9 ! 4 o.%.^ Z.V.E.U.y 4                     ",
"                    % 4 T Z.`.Q.C.' 5 2 ] ..{ O.4 4 4 4 ~ 4  .#.W.) [ 4 ! 4 9 ] 8 8 } o.H.8 9 $ Z.A.].Y.0 4                     ",
"                  & 9 ^ ..$.] C...y ..V.P.E [ %.t 4 @ 4 ~ _ 1 _.E.U.Q.$.! $ $ @ 4 4 } O.) H.} 4 4 Z.A.0 ....0                   ",
"                  + _ T.W.C.{ < 9 W XXQ.Y.Y.{ < t 6 Y ! 8 8 < Q.%XW.%X7 _ $ 8 ! 4 @ 4 ..Y.F.W.Z.4 R 6 A.F.[.0                   ",
"                  + ' .X|.].V.1 4 o. X}.[.~.R @ 2 | ..] 8 8 < D.R.&XS.@ 4 Q } ..[ 4 4  .{.Q.#XA.9 ! C.A.`.#Xb                   ",
"                  + ) ] V.D.R 8 8 Y S.U.S.R R , Q |  .I.{ 8 4 ~ S.D.[ @ 4 Q A.A...} 4 < X. X_.o.@ 4 [ T.Z.C.v                   ",
"                    + % 9 0 6 ! T 8 !  .Q t ^ 4 $.U.D.~.C.8 $ 8 4 8 8 @ 4 ..G.J.Q...$ $ [ X.Z.8 ^ o.4 0 $.9 $                   ",
"                        8 i Z.[ [ 2 9 4 8 r ) < ..Q. X XS.$ $ 8 { } 8 4 4 { R.].|...9 { 9 8 9 $ $.$.%.r &                       ",
"                        ~ V.X.E.V.T ) _ t [ ..o.2 F.=XF.R 9 ~  .G.Z.Z._ @ 4 X.|.%.$.o.{ X.0 [ $ %.R.J.%.@                       ",
"                        t ].C.E.C.R ` V.D...X.$.9 ~ H.7 # 9 _ G.}.P.{.o.@ @ 2 X.9 9 +.A.X.D.X.$ %.`.#XY.8                       ",
"                        t OX`.Y.C.Y ( G.'.C.C...$ 8 6 9 x 5 p U.~.%XD.) @ $ $ 9 $ $ @.Y.Q._.Z.$ %.A.}.Q.8                       ",
"                        r V.C. .! 0 T D.*XY.S.$.$ 8 e.4 F 5 c 7 S.!.r F % D w I @ $ _ F.|.}.X.$ ^ X.Z.Z.8                       ",
"                      t.8 6 6 6 6 4 6 R U.| _ 9       # = l <.5 # | 0 L = u.,.= ;   6 { | I.0 $ 4 6 4 4 8                       ",
"                                    m 4 t r 4           = z z 7 ,.9 5.8.a.G -         1 4 6 4                                   ",
"                                    -.4 n               = z S q.7.q 5.a.M.=               6 4                                   ",
"                                                        - Z 6.g.l f.z.h.f *                                                     ",
"                                                        - D 7.j.v.b.V g d *                                                     ",
"                                                        - D u.z.v.2Xj.A 9.*                                                     ",
"                                                        - D u.<Xg.2Xx.P k *                                                     ",
"                                                        - J 4.<X,X:.x.,Xj *                                                     ",
"                                                        - J 3.c.>.:.x.,Xj *                                                     ",
"                                                        - D 3.v.,Xg.<Xd.C *                                                     ",
"                                                        - D 3.l.1X2X3X5.D *                                                     ",
"                                                      * z H 3.k.l.3Xj.A <.*                                                     ",
"                                                      = Z H 7.1.k.B k.K p.>                                                     ",
"                                                      : Z 1.N.h 2.>XJ H p.k -                                                   ",
"                                                    - s q.N.B - A :XJ H i.s.- -                                                 ",
"                                                  g e q.B.D D - S :XS = 6.6.m.G O                                               ",
"                                              e - s n.r.s x - - J 8.G = - - 0.9.e.h -                                           ",
"                                          o w a K 8.I O - - - - Z a.d * * > : s H z <.;                                         ",
"                                          o * = = d d           - w.-           = : = ;                                         ",
"                                                                O q.w.o                                                         "
};
